<svg width="306" height="113" viewBox="0 0 306 113" fill="none" xmlns="http://www.w3.org/2000/svg">
<path d="M268.56 71.9999C263.743 71.9999 259.56 71.1971 256.01 69.5914C252.461 67.9858 249.715 65.7041 247.771 62.7464C245.827 59.7041 244.855 56.1971 244.855 52.2253C244.855 48.4225 245.701 45.0422 247.391 42.0844C249.081 39.0422 251.701 36.507 255.25 34.4788C258.799 32.4506 263.278 31.014 268.686 30.169L291.25 26.4929V39.169L271.855 42.4647C268.56 43.0563 266.109 44.1126 264.503 45.6337C262.898 47.1549 262.095 49.1408 262.095 51.5915C262.095 53.9577 262.982 55.8591 264.757 57.2957C266.616 58.6478 268.898 59.3238 271.602 59.3238C275.067 59.3238 278.109 58.6055 280.729 57.1689C283.433 55.6478 285.503 53.5774 286.94 50.9577C288.461 48.3379 289.222 45.4647 289.222 42.338V24.5915C289.222 21.6338 288.038 19.1831 285.672 17.2394C283.391 15.2112 280.348 14.1972 276.546 14.1972C272.996 14.1972 269.827 15.169 267.039 17.1127C264.334 18.9718 262.348 21.4648 261.081 24.5915L247.517 18C248.87 14.3662 250.982 11.2394 253.855 8.6197C256.813 5.91548 260.278 3.80281 264.25 2.28169C268.222 0.760562 272.531 0 277.179 0C282.841 0 287.827 1.05634 292.137 3.16901C296.447 5.19718 299.785 8.07041 302.151 11.7887C304.602 15.4225 305.827 19.6901 305.827 24.5915V70.4788H290.109V58.69L293.658 58.4365C291.884 61.3943 289.771 63.8872 287.32 65.9154C284.869 67.859 282.081 69.3802 278.954 70.4788C275.827 71.4928 272.362 71.9999 268.56 71.9999Z" fill="white"/>
<path d="M198.965 70.4789V1.5213H214.556V16.8593L213.289 14.5776C214.894 9.4227 217.387 5.83115 220.768 3.80299C224.232 1.77482 228.373 0.760742 233.19 0.760742H237.246V15.4649H231.289C226.556 15.4649 222.754 16.9438 219.88 19.9015C217.007 22.7748 215.57 26.8311 215.57 32.0706V70.4789H198.965Z" fill="white"/>
<path d="M147.149 72C141.825 72 137.177 70.8169 133.205 68.4507C129.318 66.0845 126.318 62.7887 124.205 58.5634C122.177 54.3381 121.163 49.3944 121.163 43.7324V1.52124H137.769V42.3381C137.769 45.2113 138.318 47.7465 139.417 49.9437C140.6 52.0564 142.248 53.7465 144.36 55.0141C146.557 56.1972 149.008 56.7888 151.712 56.7888C154.417 56.7888 156.825 56.1972 158.938 55.0141C161.05 53.7465 162.698 52.0141 163.881 49.8169C165.064 47.6198 165.656 45 165.656 41.9578V1.52124H182.262V70.4789H166.543V56.9155L167.938 59.324C166.332 63.5493 163.67 66.7183 159.952 68.831C156.318 70.9437 152.05 72 147.149 72Z" fill="white"/>
<path d="M26.7501 70.4789L3.0459 1.52124H20.5388L37.905 53.8733L31.8205 53.7465L50.3275 1.52124H65.0317L83.412 53.7465L77.3275 53.8733L94.6936 1.52124H112.187L88.4824 70.4789H73.6514L54.8909 15.8452H60.4683L41.4543 70.4789H26.7501Z" fill="white"/>
<path d="M293.747 112.28V90.5198H298.667V95.3598L298.267 94.6398C298.774 93.0131 299.56 91.8798 300.627 91.2398C301.72 90.5998 303.027 90.2798 304.547 90.2798H305.827V94.9198H303.947C302.454 94.9198 301.254 95.3865 300.347 96.3198C299.44 97.2265 298.987 98.5065 298.987 100.16V112.28H293.747Z" fill="white"/>
<path d="M279.175 112.76C276.935 112.76 274.975 112.253 273.295 111.24C271.615 110.226 270.308 108.853 269.375 107.12C268.441 105.386 267.975 103.466 267.975 101.36C267.975 99.1729 268.441 97.2396 269.375 95.5596C270.335 93.8529 271.628 92.5062 273.255 91.5196C274.908 90.5329 276.748 90.0396 278.775 90.0396C280.481 90.0396 281.975 90.3196 283.255 90.8796C284.561 91.4396 285.668 92.2129 286.575 93.1996C287.481 94.1862 288.175 95.3196 288.655 96.5996C289.135 97.8529 289.375 99.2129 289.375 100.68C289.375 101.053 289.348 101.44 289.295 101.84C289.268 102.24 289.201 102.586 289.095 102.88H272.295V98.8796H286.135L283.655 100.76C283.895 99.5329 283.828 98.4396 283.455 97.4796C283.108 96.5196 282.521 95.7596 281.695 95.1996C280.895 94.6396 279.921 94.3596 278.775 94.3596C277.681 94.3596 276.708 94.6396 275.855 95.1996C275.001 95.7329 274.348 96.5329 273.895 97.5996C273.468 98.6396 273.308 99.9062 273.415 101.4C273.308 102.733 273.481 103.92 273.935 104.96C274.415 105.973 275.108 106.76 276.015 107.32C276.948 107.88 278.015 108.16 279.215 108.16C280.415 108.16 281.428 107.906 282.255 107.4C283.108 106.893 283.775 106.213 284.255 105.36L288.495 107.44C288.068 108.48 287.401 109.4 286.495 110.2C285.588 111 284.508 111.626 283.255 112.08C282.028 112.533 280.668 112.76 279.175 112.76Z" fill="white"/>
<path d="M254.282 112.76C252.042 112.76 250.082 112.253 248.402 111.24C246.722 110.226 245.415 108.853 244.482 107.12C243.549 105.386 243.082 103.466 243.082 101.36C243.082 99.1729 243.549 97.2396 244.482 95.5596C245.442 93.8529 246.735 92.5062 248.362 91.5196C250.015 90.5329 251.855 90.0396 253.882 90.0396C255.589 90.0396 257.082 90.3196 258.362 90.8796C259.669 91.4396 260.775 92.2129 261.682 93.1996C262.589 94.1862 263.282 95.3196 263.762 96.5996C264.242 97.8529 264.482 99.2129 264.482 100.68C264.482 101.053 264.455 101.44 264.402 101.84C264.375 102.24 264.309 102.586 264.202 102.88H247.402V98.8796H261.242L258.762 100.76C259.002 99.5329 258.935 98.4396 258.562 97.4796C258.215 96.5196 257.629 95.7596 256.802 95.1996C256.002 94.6396 255.029 94.3596 253.882 94.3596C252.789 94.3596 251.815 94.6396 250.962 95.1996C250.109 95.7329 249.455 96.5329 249.002 97.5996C248.575 98.6396 248.415 99.9062 248.522 101.4C248.415 102.733 248.589 103.92 249.042 104.96C249.522 105.973 250.215 106.76 251.122 107.32C252.055 107.88 253.122 108.16 254.322 108.16C255.522 108.16 256.535 107.906 257.362 107.4C258.215 106.893 258.882 106.213 259.362 105.36L263.602 107.44C263.175 108.48 262.509 109.4 261.602 110.2C260.695 111 259.615 111.626 258.362 112.08C257.135 112.533 255.775 112.76 254.282 112.76Z" fill="white"/>
<path d="M228.602 112.28V90.5198H233.522V95.3598L233.122 94.6398C233.628 93.0131 234.415 91.8798 235.482 91.2398C236.575 90.5998 237.882 90.2798 239.402 90.2798H240.682V94.9198H238.802C237.308 94.9198 236.108 95.3865 235.202 96.3198C234.295 97.2265 233.842 98.5065 233.842 100.16V112.28H228.602Z" fill="white"/>
<path d="M211.598 112.76C210.078 112.76 208.758 112.506 207.638 112C206.518 111.493 205.651 110.773 205.038 109.84C204.425 108.88 204.118 107.773 204.118 106.52C204.118 105.32 204.385 104.253 204.918 103.32C205.451 102.36 206.278 101.56 207.398 100.92C208.518 100.28 209.931 99.8262 211.638 99.5596L218.758 98.3996V102.4L212.638 103.44C211.598 103.626 210.825 103.96 210.318 104.44C209.811 104.92 209.558 105.546 209.558 106.32C209.558 107.066 209.838 107.666 210.398 108.12C210.985 108.546 211.705 108.76 212.558 108.76C213.652 108.76 214.611 108.533 215.438 108.08C216.291 107.6 216.945 106.946 217.398 106.12C217.878 105.293 218.118 104.386 218.118 103.4V97.7996C218.118 96.8662 217.745 96.0929 216.998 95.4796C216.278 94.8396 215.318 94.5196 214.118 94.5196C212.998 94.5196 211.998 94.8262 211.118 95.4396C210.265 96.0262 209.638 96.8129 209.238 97.7996L204.958 95.7196C205.385 94.5729 206.051 93.5862 206.958 92.7596C207.891 91.9062 208.985 91.2396 210.238 90.7596C211.491 90.2795 212.851 90.0396 214.318 90.0396C216.105 90.0396 217.678 90.3729 219.038 91.0396C220.398 91.6796 221.451 92.5862 222.198 93.7596C222.971 94.9062 223.358 96.2529 223.358 97.7996V112.28H218.398V108.56L219.518 108.48C218.958 109.413 218.291 110.2 217.518 110.84C216.745 111.453 215.865 111.933 214.878 112.28C213.891 112.6 212.798 112.76 211.598 112.76Z" fill="white"/>
<path d="M188.452 112.76C186.319 112.76 184.346 112.373 182.532 111.6C180.746 110.827 179.172 109.747 177.812 108.36C176.479 106.973 175.439 105.347 174.692 103.48C173.946 101.613 173.572 99.5733 173.572 97.36C173.572 95.1467 173.932 93.1067 174.652 91.24C175.399 89.3467 176.439 87.72 177.772 86.36C179.132 84.9733 180.719 83.9067 182.532 83.16C184.346 82.3867 186.319 82 188.452 82C190.586 82 192.492 82.36 194.172 83.08C195.879 83.8 197.319 84.76 198.492 85.96C199.666 87.1333 200.506 88.4267 201.012 89.84L196.132 92.12C195.572 90.6267 194.626 89.4 193.292 88.44C191.959 87.4533 190.346 86.96 188.452 86.96C186.586 86.96 184.932 87.4 183.492 88.28C182.079 89.16 180.972 90.3733 180.172 91.92C179.399 93.4667 179.012 95.28 179.012 97.36C179.012 99.44 179.399 101.267 180.172 102.84C180.972 104.387 182.079 105.6 183.492 106.48C184.932 107.36 186.586 107.8 188.452 107.8C190.346 107.8 191.959 107.32 193.292 106.36C194.626 105.373 195.572 104.133 196.132 102.64L201.012 104.92C200.506 106.333 199.666 107.64 198.492 108.84C197.319 110.013 195.879 110.96 194.172 111.68C192.492 112.4 190.586 112.76 188.452 112.76Z" fill="white"/>
</svg>
