<svg width="146" height="122" viewBox="0 0 146 122" fill="none" xmlns="http://www.w3.org/2000/svg">
<path d="M0.266596 14.0602C-0.564675 11.7814 0.612912 9.26167 2.89681 8.43225L23.5736 0.923224C25.8575 0.0938004 28.3829 1.26877 29.2141 3.54759L67.2944 107.94C68.1257 110.219 66.9481 112.738 64.6642 113.568L43.9874 121.077C41.7035 121.906 39.1782 120.731 38.3469 118.452L0.266596 14.0602Z" fill="white"/>
<path d="M57.3533 8.96663C56.9313 6.5784 58.5295 4.30098 60.923 3.87987L82.5926 0.0674431C84.9861 -0.353666 87.2686 1.241 87.6907 3.62923L107.025 113.033C107.447 115.422 105.848 117.699 103.455 118.12L81.7853 121.933C79.3917 122.354 77.1092 120.759 76.6872 118.371L57.3533 8.96663Z" fill="white"/>
<path d="M115.195 5.45409C115.195 3.02902 117.165 1.06311 119.595 1.06311H141.599C144.03 1.06311 146 3.02902 146 5.45409V116.546C146 118.971 144.03 120.937 141.599 120.937H119.595C117.165 120.937 115.195 118.971 115.195 116.546V5.45409Z" fill="white"/>
</svg>
