<svg width="508" height="113" viewBox="0 0 508 113" fill="none" xmlns="http://www.w3.org/2000/svg">
<path d="M268.56 71.9999C263.743 71.9999 259.56 71.1971 256.01 69.5914C252.461 67.9858 249.715 65.7041 247.771 62.7464C245.827 59.7041 244.855 56.1971 244.855 52.2253C244.855 48.4225 245.701 45.0422 247.391 42.0844C249.081 39.0422 251.701 36.507 255.25 34.4788C258.799 32.4506 263.278 31.014 268.686 30.169L291.25 26.4929V39.169L271.855 42.4647C268.56 43.0563 266.109 44.1126 264.503 45.6337C262.898 47.1549 262.095 49.1408 262.095 51.5915C262.095 53.9577 262.982 55.8591 264.757 57.2957C266.616 58.6478 268.898 59.3238 271.602 59.3238C275.067 59.3238 278.109 58.6055 280.729 57.1689C283.433 55.6478 285.503 53.5774 286.94 50.9577C288.461 48.3379 289.222 45.4647 289.222 42.338V24.5915C289.222 21.6338 288.038 19.1831 285.672 17.2394C283.391 15.2112 280.348 14.1972 276.546 14.1972C272.996 14.1972 269.827 15.169 267.039 17.1127C264.334 18.9718 262.348 21.4648 261.081 24.5915L247.517 18C248.87 14.3662 250.982 11.2394 253.855 8.6197C256.813 5.91548 260.278 3.80281 264.25 2.28169C268.222 0.760562 272.531 0 277.179 0C282.841 0 287.827 1.05634 292.137 3.16901C296.447 5.19718 299.785 8.07041 302.151 11.7887C304.602 15.4225 305.827 19.6901 305.827 24.5915V70.4788H290.109V58.69L293.658 58.4365C291.884 61.3943 289.771 63.8872 287.32 65.9154C284.869 67.859 282.081 69.3802 278.954 70.4788C275.827 71.4928 272.362 71.9999 268.56 71.9999Z" fill="white"/>
<path d="M198.965 70.4789V1.5213H214.556V16.8593L213.289 14.5776C214.894 9.4227 217.387 5.83115 220.768 3.80299C224.232 1.77482 228.373 0.760742 233.19 0.760742H237.246V15.4649H231.289C226.556 15.4649 222.754 16.9438 219.88 19.9015C217.007 22.7748 215.57 26.8311 215.57 32.0706V70.4789H198.965Z" fill="white"/>
<path d="M147.149 72.0002C141.825 72.0002 137.177 70.8171 133.205 68.4509C129.318 66.0847 126.318 62.789 124.205 58.5636C122.177 54.3383 121.163 49.3946 121.163 43.7327V1.52148H137.769V42.3383C137.769 45.2115 138.318 47.7468 139.417 49.9439C140.6 52.0566 142.248 53.7467 144.36 55.0144C146.557 56.1974 149.008 56.789 151.712 56.789C154.417 56.789 156.825 56.1974 158.938 55.0144C161.05 53.7467 162.698 52.0144 163.881 49.8172C165.064 47.62 165.656 45.0003 165.656 41.958V1.52148H182.262V70.4791H166.543V56.9158L167.938 59.3242C166.332 63.5495 163.67 66.7185 159.952 68.8312C156.318 70.9439 152.05 72.0002 147.149 72.0002Z" fill="white"/>
<path d="M26.7501 70.4791L3.0459 1.52148H20.5388L37.905 53.8735L31.8205 53.7468L50.3275 1.52148H65.0317L83.412 53.7468L77.3275 53.8735L94.6936 1.52148H112.187L88.4824 70.4791H73.6514L54.8909 15.8454H60.4683L41.4543 70.4791H26.7501Z" fill="white"/>
<path d="M295.627 112.76C293.387 112.76 291.427 112.253 289.747 111.24C288.067 110.226 286.76 108.853 285.827 107.12C284.893 105.386 284.427 103.466 284.427 101.36C284.427 99.1729 284.893 97.2396 285.827 95.5596C286.787 93.8529 288.08 92.5062 289.707 91.5196C291.36 90.5329 293.2 90.0396 295.227 90.0396C296.933 90.0396 298.427 90.3196 299.707 90.8796C301.013 91.4396 302.12 92.2129 303.027 93.1996C303.933 94.1862 304.627 95.3196 305.107 96.5996C305.587 97.8529 305.827 99.2129 305.827 100.68C305.827 101.053 305.8 101.44 305.747 101.84C305.72 102.24 305.653 102.586 305.547 102.88H288.747V98.8796H302.587L300.107 100.76C300.347 99.5329 300.28 98.4396 299.907 97.4796C299.56 96.5196 298.973 95.7596 298.147 95.1996C297.347 94.6396 296.373 94.3596 295.227 94.3596C294.133 94.3596 293.16 94.6396 292.307 95.1996C291.453 95.7329 290.8 96.5329 290.347 97.5996C289.92 98.6396 289.76 99.9062 289.867 101.4C289.76 102.733 289.933 103.92 290.387 104.96C290.867 105.973 291.56 106.76 292.467 107.32C293.4 107.88 294.467 108.16 295.667 108.16C296.867 108.16 297.88 107.906 298.707 107.4C299.56 106.893 300.227 106.213 300.707 105.36L304.947 107.44C304.52 108.48 303.853 109.4 302.947 110.2C302.04 111 300.96 111.626 299.707 112.08C298.48 112.533 297.12 112.76 295.627 112.76Z" fill="white"/>
<path d="M271.05 112.76C268.89 112.76 266.944 112.266 265.21 111.28C263.504 110.266 262.157 108.906 261.17 107.2C260.184 105.466 259.69 103.52 259.69 101.36C259.69 99.1996 260.184 97.2662 261.17 95.5596C262.157 93.8529 263.504 92.5062 265.21 91.5196C266.944 90.5329 268.89 90.0396 271.05 90.0396C272.597 90.0396 274.037 90.3196 275.37 90.8796C276.704 91.4129 277.85 92.1596 278.81 93.1196C279.797 94.0529 280.504 95.1729 280.93 96.4796L276.33 98.4796C275.93 97.3862 275.25 96.5062 274.29 95.8396C273.357 95.1729 272.277 94.8396 271.05 94.8396C269.904 94.8396 268.877 95.1196 267.97 95.6796C267.09 96.2396 266.397 97.0129 265.89 97.9996C265.384 98.9862 265.13 100.12 265.13 101.4C265.13 102.68 265.384 103.813 265.89 104.8C266.397 105.786 267.09 106.56 267.97 107.12C268.877 107.68 269.904 107.96 271.05 107.96C272.304 107.96 273.397 107.626 274.33 106.96C275.264 106.293 275.93 105.4 276.33 104.28L280.93 106.36C280.504 107.586 279.81 108.693 278.85 109.68C277.89 110.64 276.744 111.4 275.41 111.96C274.077 112.493 272.624 112.76 271.05 112.76Z" fill="white"/>
<path d="M243.568 112.76C242.048 112.76 240.728 112.506 239.608 112C238.488 111.493 237.621 110.773 237.008 109.84C236.395 108.88 236.088 107.773 236.088 106.52C236.088 105.32 236.355 104.253 236.888 103.32C237.421 102.36 238.248 101.56 239.368 100.92C240.488 100.28 241.901 99.8262 243.608 99.5596L250.728 98.3996V102.4L244.608 103.44C243.568 103.626 242.795 103.96 242.288 104.44C241.781 104.92 241.528 105.546 241.528 106.32C241.528 107.066 241.808 107.666 242.368 108.12C242.955 108.546 243.675 108.76 244.528 108.76C245.621 108.76 246.581 108.533 247.408 108.08C248.261 107.6 248.915 106.946 249.368 106.12C249.848 105.293 250.088 104.386 250.088 103.4V97.7996C250.088 96.8662 249.715 96.0929 248.968 95.4796C248.248 94.8396 247.288 94.5196 246.088 94.5196C244.968 94.5196 243.968 94.8262 243.088 95.4396C242.235 96.0262 241.608 96.8129 241.208 97.7996L236.928 95.7196C237.355 94.5729 238.021 93.5862 238.928 92.7596C239.861 91.9062 240.955 91.2396 242.208 90.7596C243.461 90.2795 244.821 90.0396 246.288 90.0396C248.075 90.0396 249.648 90.3729 251.008 91.0396C252.368 91.6796 253.421 92.5862 254.168 93.7596C254.941 94.9062 255.328 96.2529 255.328 97.7996V112.28H250.368V108.56L251.488 108.48C250.928 109.413 250.261 110.2 249.488 110.84C248.715 111.453 247.835 111.933 246.848 112.28C245.861 112.6 244.768 112.76 243.568 112.76Z" fill="white"/>
<path d="M226.489 112.28V82H231.729V112.28H226.489Z" fill="white"/>
<path d="M200.592 112.28V82.48H211.712C213.738 82.48 215.525 82.8533 217.072 83.6C218.645 84.32 219.872 85.3866 220.752 86.8C221.632 88.1866 222.072 89.88 222.072 91.88C222.072 93.8533 221.618 95.5467 220.712 96.96C219.832 98.3467 218.618 99.4133 217.072 100.16C215.525 100.907 213.738 101.28 211.712 101.28H206.032V112.28H200.592ZM206.032 96.48H211.792C212.778 96.48 213.632 96.2933 214.352 95.92C215.072 95.52 215.632 94.9733 216.032 94.28C216.432 93.5867 216.632 92.7866 216.632 91.88C216.632 90.9466 216.432 90.1466 216.032 89.48C215.632 88.7866 215.072 88.2533 214.352 87.88C213.632 87.48 212.778 87.28 211.792 87.28H206.032V96.48Z" fill="white"/>
<path d="M336.072 12.9953C335.305 10.8891 336.391 8.56021 338.498 7.79361L357.566 0.853301C359.672 0.0866961 362.001 1.17268 362.768 3.27891L397.886 99.7647C398.652 101.871 397.566 104.2 395.46 104.966L376.392 111.907C374.285 112.673 371.957 111.587 371.19 109.481L336.072 12.9953Z" fill="white"/>
<path d="M388.718 8.28752C388.329 6.08017 389.803 3.97524 392.01 3.58602L411.994 0.0623351C414.201 -0.326881 416.306 1.14701 416.695 3.35436L434.525 104.472C434.914 106.68 433.44 108.785 431.233 109.174L411.249 112.698C409.042 113.087 406.937 111.613 406.548 109.406L388.718 8.28752Z" fill="white"/>
<path d="M441.826 9.88278C441.826 7.73838 443.681 6 445.969 6H466.683C468.971 6 470.826 7.73838 470.826 9.88278V108.117C470.826 110.262 468.971 112 466.683 112H445.969C443.681 112 441.826 110.262 441.826 108.117V9.88278Z" fill="white"/>
<path fill-rule="evenodd" clip-rule="evenodd" d="M482.354 19.897C481.535 18.1304 479.765 17 477.817 17H439.826C437.065 17 434.826 19.2386 434.826 22V72C434.826 74.7614 437.065 77 439.826 77H447.236C449.804 77 451.475 74.2972 450.326 72L449.121 69.5889C448.526 68.3994 449.391 67 450.721 67V67C451.398 67 452.018 67.3828 452.321 67.9889L455.714 74.7751C456.395 76.1387 457.789 77 459.314 77H460.236C462.804 77 464.475 74.2972 463.326 72L462.121 69.5889C461.526 68.3994 462.391 67 463.721 67V67C464.398 67 465.018 67.3828 465.321 67.9889L468.714 74.7751C469.395 76.1387 470.789 77 472.314 77H473.236C475.804 77 477.475 74.2972 476.326 72L475.121 69.5889C474.526 68.3994 475.391 67 476.721 67V67C477.398 67 478.018 67.3828 478.321 67.9889L481.714 74.7751C482.396 76.1387 483.789 77 485.314 77H486.236C488.804 77 490.475 74.2972 489.326 72L488.121 69.5889C487.526 68.3994 488.391 67 489.721 67V67C490.398 67 491.018 67.3828 491.321 67.9889L494.444 74.2361C495.291 75.93 497.022 77 498.916 77H500.997C504.65 77 507.07 73.2109 505.533 69.897L482.354 19.897Z" fill="white"/>
</svg>
