<svg width="306" height="234" viewBox="0 0 306 234" fill="none" xmlns="http://www.w3.org/2000/svg">
<path d="M80.1797 14.0602C79.3484 11.7814 80.526 9.26167 82.8099 8.43225L103.487 0.923224C105.771 0.0938004 108.296 1.26877 109.127 3.54759L147.208 107.94C148.039 110.219 146.861 112.738 144.577 113.568L123.9 121.077C121.617 121.906 119.091 120.731 118.26 118.452L80.1797 14.0602Z" fill="white"/>
<path d="M137.266 8.96663C136.844 6.5784 138.443 4.30098 140.836 3.87987L162.506 0.0674431C164.899 -0.353666 167.182 1.241 167.604 3.62923L186.938 113.033C187.36 115.422 185.761 117.699 183.368 118.12L161.698 121.933C159.305 122.354 157.022 120.759 156.6 118.371L137.266 8.96663Z" fill="white"/>
<path d="M195.108 5.45409C195.108 3.02902 197.078 1.06311 199.509 1.06311H221.512C223.943 1.06311 225.913 3.02902 225.913 5.45409V116.546C225.913 118.971 223.943 120.937 221.512 120.937H199.509C197.078 120.937 195.108 118.971 195.108 116.546V5.45409Z" fill="white"/>
<path d="M268.56 234C263.743 234 259.56 233.197 256.01 231.591C252.461 229.986 249.715 227.704 247.771 224.746C245.827 221.704 244.855 218.197 244.855 214.225C244.855 210.422 245.701 207.042 247.391 204.084C249.081 201.042 251.701 198.507 255.25 196.479C258.799 194.451 263.278 193.014 268.686 192.169L291.25 188.493V201.169L271.855 204.465C268.56 205.056 266.109 206.113 264.503 207.634C262.898 209.155 262.095 211.141 262.095 213.591C262.095 215.958 262.982 217.859 264.757 219.296C266.616 220.648 268.898 221.324 271.602 221.324C275.067 221.324 278.109 220.606 280.729 219.169C283.433 217.648 285.503 215.577 286.94 212.958C288.461 210.338 289.222 207.465 289.222 204.338V186.592C289.222 183.634 288.038 181.183 285.672 179.239C283.391 177.211 280.348 176.197 276.546 176.197C272.996 176.197 269.827 177.169 267.039 179.113C264.334 180.972 262.348 183.465 261.081 186.592L247.517 180C248.87 176.366 250.982 173.239 253.855 170.62C256.813 167.915 260.278 165.803 264.25 164.282C268.222 162.761 272.531 162 277.179 162C282.841 162 287.827 163.056 292.137 165.169C296.447 167.197 299.785 170.07 302.151 173.789C304.602 177.423 305.827 181.69 305.827 186.592V232.479H290.109V220.69L293.658 220.437C291.884 223.394 289.771 225.887 287.32 227.915C284.869 229.859 282.081 231.38 278.954 232.479C275.827 233.493 272.362 234 268.56 234Z" fill="white"/>
<path d="M198.965 232.479V163.521H214.556V178.859L213.289 176.578C214.894 171.423 217.387 167.831 220.768 165.803C224.232 163.775 228.373 162.761 233.19 162.761H237.246V177.465H231.289C226.556 177.465 222.754 178.944 219.88 181.902C217.007 184.775 215.57 188.831 215.57 194.071V232.479H198.965Z" fill="white"/>
<path d="M147.149 234C141.825 234 137.177 232.817 133.205 230.451C129.318 228.085 126.318 224.789 124.205 220.563C122.177 216.338 121.163 211.394 121.163 205.732V163.521H137.769V204.338C137.769 207.211 138.318 209.747 139.417 211.944C140.6 214.056 142.248 215.747 144.36 217.014C146.557 218.197 149.008 218.789 151.712 218.789C154.417 218.789 156.825 218.197 158.938 217.014C161.05 215.747 162.698 214.014 163.881 211.817C165.064 209.62 165.656 207 165.656 203.958V163.521H182.262V232.479H166.543V218.916L167.938 221.324C166.332 225.549 163.67 228.718 159.952 230.831C156.318 232.944 152.05 234 147.149 234Z" fill="white"/>
<path d="M26.7501 232.479L3.0459 163.521H20.5388L37.905 215.873L31.8205 215.747L50.3275 163.521H65.0317L83.412 215.747L77.3275 215.873L94.6936 163.521H112.187L88.4824 232.479H73.6514L54.8909 177.845H60.4683L41.4543 232.479H26.7501Z" fill="white"/>
</svg>
