<svg width="508" height="114" viewBox="0 0 508 114" fill="none" xmlns="http://www.w3.org/2000/svg">
<path d="M268.56 72.7596C263.743 72.7596 259.56 71.9568 256.01 70.3512C252.461 68.7456 249.715 66.4639 247.771 63.5061C245.827 60.4639 244.855 56.9569 244.855 52.985C244.855 49.1822 245.701 45.8019 247.391 42.8442C249.081 39.802 251.701 37.2667 255.25 35.2386C258.799 33.2104 263.278 31.7738 268.686 30.9287L291.25 27.2527V39.9287L271.855 43.2245C268.56 43.816 266.109 44.8724 264.503 46.3935C262.898 47.9146 262.095 49.9005 262.095 52.3512C262.095 54.7174 262.982 56.6188 264.757 58.0554C266.616 59.4076 268.898 60.0836 271.602 60.0836C275.067 60.0836 278.109 59.3653 280.729 57.9287C283.433 56.4076 285.503 54.3371 286.94 51.7174C288.461 49.0977 289.222 46.2245 289.222 43.0977V25.3513C289.222 22.3935 288.038 19.9428 285.672 17.9992C283.391 15.971 280.348 14.9569 276.546 14.9569C272.996 14.9569 269.827 15.9288 267.039 17.8724C264.334 19.7316 262.348 22.2245 261.081 25.3513L247.517 18.7597C248.87 15.1259 250.982 11.9992 253.855 9.37947C256.813 6.67525 260.278 4.56258 264.25 3.04145C268.222 1.52033 272.531 0.759766 277.179 0.759766C282.841 0.759766 287.827 1.8161 292.137 3.92878C296.447 5.95694 299.785 8.83017 302.151 12.5485C304.602 16.1823 305.827 20.4499 305.827 25.3513V71.2385H290.109V59.4498L293.658 59.1963C291.884 62.154 289.771 64.647 287.32 66.6751C284.869 68.6188 282.081 70.1399 278.954 71.2385C275.827 72.2526 272.362 72.7596 268.56 72.7596Z" fill="white"/>
<path d="M198.965 71.2387V2.28107H214.556V17.6191L213.289 15.3374C214.894 10.1825 217.387 6.59092 220.768 4.56275C224.232 2.53459 228.373 1.52051 233.19 1.52051H237.246V16.2247H231.289C226.556 16.2247 222.754 17.7036 219.88 20.6613C217.007 23.5345 215.57 27.5909 215.57 32.8303V71.2387H198.965Z" fill="white"/>
<path d="M147.149 72.76C141.825 72.76 137.177 71.5769 133.205 69.2107C129.318 66.8445 126.318 63.5487 124.205 59.3234C122.177 55.0981 121.163 50.1544 121.163 44.4924V2.28125H137.769V43.0981C137.769 45.9713 138.318 48.5065 139.417 50.7037C140.6 52.8164 142.248 54.5065 144.36 55.7741C146.557 56.9572 149.008 57.5488 151.712 57.5488C154.417 57.5488 156.825 56.9572 158.938 55.7741C161.05 54.5065 162.698 52.7741 163.881 50.5769C165.064 48.3798 165.656 45.76 165.656 42.7178V2.28125H182.262V71.2389H166.543V57.6755L167.938 60.084C166.332 64.3093 163.67 67.4783 159.952 69.591C156.318 71.7037 152.05 72.76 147.149 72.76Z" fill="white"/>
<path d="M26.7501 71.2389L3.0459 2.28125H20.5388L37.905 54.6333L31.8205 54.5065L50.3275 2.28125H65.0317L83.412 54.5065L77.3275 54.6333L94.6936 2.28125H112.187L88.4824 71.2389H73.6514L54.8909 16.6052H60.4683L41.4543 71.2389H26.7501Z" fill="white"/>
<path d="M293.747 113.04V91.2795H298.667V96.1196L298.267 95.3995C298.774 93.7729 299.56 92.6395 300.627 91.9995C301.72 91.3596 303.027 91.0396 304.547 91.0396H305.827V95.6796H303.947C302.454 95.6796 301.254 96.1462 300.347 97.0795C299.44 97.9862 298.987 99.2662 298.987 100.92V113.04H293.747Z" fill="white"/>
<path d="M279.175 113.519C276.935 113.519 274.975 113.013 273.295 111.999C271.615 110.986 270.308 109.613 269.375 107.879C268.441 106.146 267.975 104.226 267.975 102.119C267.975 99.9327 268.441 97.9993 269.375 96.3193C270.335 94.6126 271.628 93.266 273.255 92.2793C274.908 91.2926 276.748 90.7993 278.775 90.7993C280.481 90.7993 281.975 91.0793 283.255 91.6393C284.561 92.1993 285.668 92.9727 286.575 93.9593C287.481 94.946 288.175 96.0793 288.655 97.3593C289.135 98.6127 289.375 99.9727 289.375 101.439C289.375 101.813 289.348 102.199 289.295 102.599C289.268 102.999 289.201 103.346 289.095 103.639H272.295V99.6393H286.135L283.655 101.519C283.895 100.293 283.828 99.1993 283.455 98.2393C283.108 97.2793 282.521 96.5193 281.695 95.9593C280.895 95.3993 279.921 95.1193 278.775 95.1193C277.681 95.1193 276.708 95.3993 275.855 95.9593C275.001 96.4927 274.348 97.2927 273.895 98.3593C273.468 99.3993 273.308 100.666 273.415 102.159C273.308 103.493 273.481 104.679 273.935 105.719C274.415 106.733 275.108 107.519 276.015 108.079C276.948 108.639 278.015 108.919 279.215 108.919C280.415 108.919 281.428 108.666 282.255 108.159C283.108 107.653 283.775 106.973 284.255 106.119L288.495 108.199C288.068 109.239 287.401 110.159 286.495 110.959C285.588 111.759 284.508 112.386 283.255 112.839C282.028 113.293 280.668 113.519 279.175 113.519Z" fill="white"/>
<path d="M254.282 113.519C252.042 113.519 250.082 113.013 248.402 111.999C246.722 110.986 245.415 109.613 244.482 107.879C243.549 106.146 243.082 104.226 243.082 102.119C243.082 99.9327 243.549 97.9993 244.482 96.3193C245.442 94.6126 246.735 93.266 248.362 92.2793C250.015 91.2926 251.855 90.7993 253.882 90.7993C255.589 90.7993 257.082 91.0793 258.362 91.6393C259.669 92.1993 260.775 92.9727 261.682 93.9593C262.589 94.946 263.282 96.0793 263.762 97.3593C264.242 98.6127 264.482 99.9727 264.482 101.439C264.482 101.813 264.455 102.199 264.402 102.599C264.375 102.999 264.309 103.346 264.202 103.639H247.402V99.6393H261.242L258.762 101.519C259.002 100.293 258.935 99.1993 258.562 98.2393C258.215 97.2793 257.629 96.5193 256.802 95.9593C256.002 95.3993 255.029 95.1193 253.882 95.1193C252.789 95.1193 251.815 95.3993 250.962 95.9593C250.109 96.4927 249.455 97.2927 249.002 98.3593C248.575 99.3993 248.415 100.666 248.522 102.159C248.415 103.493 248.589 104.679 249.042 105.719C249.522 106.733 250.215 107.519 251.122 108.079C252.055 108.639 253.122 108.919 254.322 108.919C255.522 108.919 256.535 108.666 257.362 108.159C258.215 107.653 258.882 106.973 259.362 106.119L263.602 108.199C263.175 109.239 262.509 110.159 261.602 110.959C260.695 111.759 259.615 112.386 258.362 112.839C257.135 113.293 255.775 113.519 254.282 113.519Z" fill="white"/>
<path d="M228.602 113.04V91.2795H233.522V96.1196L233.122 95.3995C233.628 93.7729 234.415 92.6395 235.482 91.9995C236.575 91.3596 237.882 91.0396 239.402 91.0396H240.682V95.6796H238.802C237.308 95.6796 236.108 96.1462 235.202 97.0795C234.295 97.9862 233.842 99.2662 233.842 100.92V113.04H228.602Z" fill="white"/>
<path d="M211.598 113.519C210.078 113.519 208.758 113.266 207.638 112.759C206.518 112.253 205.651 111.533 205.038 110.599C204.425 109.639 204.118 108.533 204.118 107.279C204.118 106.079 204.385 105.013 204.918 104.079C205.451 103.119 206.278 102.319 207.398 101.679C208.518 101.039 209.931 100.586 211.638 100.319L218.758 99.1593V103.159L212.638 104.199C211.598 104.386 210.825 104.719 210.318 105.199C209.811 105.679 209.558 106.306 209.558 107.079C209.558 107.826 209.838 108.426 210.398 108.879C210.985 109.306 211.705 109.519 212.558 109.519C213.652 109.519 214.611 109.293 215.438 108.839C216.291 108.359 216.945 107.706 217.398 106.879C217.878 106.053 218.118 105.146 218.118 104.159V98.5593C218.118 97.626 217.745 96.8527 216.998 96.2393C216.278 95.5993 215.318 95.2793 214.118 95.2793C212.998 95.2793 211.998 95.586 211.118 96.1993C210.265 96.786 209.638 97.5726 209.238 98.5593L204.958 96.4793C205.385 95.3327 206.051 94.346 206.958 93.5193C207.891 92.666 208.985 91.9993 210.238 91.5193C211.491 91.0393 212.851 90.7993 214.318 90.7993C216.105 90.7993 217.678 91.1326 219.038 91.7993C220.398 92.4393 221.451 93.346 222.198 94.5193C222.971 95.666 223.358 97.0127 223.358 98.5593V113.039H218.398V109.319L219.518 109.239C218.958 110.173 218.291 110.959 217.518 111.599C216.745 112.213 215.865 112.693 214.878 113.039C213.891 113.359 212.798 113.519 211.598 113.519Z" fill="white"/>
<path d="M188.452 113.52C186.319 113.52 184.346 113.133 182.532 112.36C180.746 111.586 179.172 110.506 177.812 109.12C176.479 107.733 175.439 106.106 174.692 104.24C173.946 102.373 173.572 100.333 173.572 98.1198C173.572 95.9064 173.932 93.8664 174.652 91.9998C175.399 90.1064 176.439 88.4798 177.772 87.1198C179.132 85.7331 180.719 84.6664 182.532 83.9198C184.346 83.1464 186.319 82.7598 188.452 82.7598C190.586 82.7598 192.492 83.1198 194.172 83.8398C195.879 84.5598 197.319 85.5198 198.492 86.7198C199.666 87.8931 200.506 89.1864 201.012 90.5998L196.132 92.8798C195.572 91.3864 194.626 90.1598 193.292 89.1998C191.959 88.2131 190.346 87.7198 188.452 87.7198C186.586 87.7198 184.932 88.1598 183.492 89.0398C182.079 89.9198 180.972 91.1331 180.172 92.6798C179.399 94.2264 179.012 96.0398 179.012 98.1198C179.012 100.2 179.399 102.026 180.172 103.6C180.972 105.146 182.079 106.36 183.492 107.24C184.932 108.12 186.586 108.56 188.452 108.56C190.346 108.56 191.959 108.08 193.292 107.12C194.626 106.133 195.572 104.893 196.132 103.4L201.012 105.68C200.506 107.093 199.666 108.4 198.492 109.6C197.319 110.773 195.879 111.72 194.172 112.44C192.492 113.16 190.586 113.52 188.452 113.52Z" fill="white"/>
<path d="M336.072 13.7551C335.305 11.6489 336.391 9.31998 338.498 8.55337L357.566 1.61307C359.672 0.846462 362.001 1.93244 362.768 4.03867L397.886 100.524C398.652 102.631 397.566 104.96 395.46 105.726L376.392 112.667C374.285 113.433 371.957 112.347 371.19 110.241L336.072 13.7551Z" fill="white"/>
<path d="M388.718 9.04729C388.329 6.83994 389.803 4.735 392.01 4.34579L411.994 0.822101C414.201 0.432885 416.306 1.90678 416.695 4.11413L434.525 105.232C434.914 107.44 433.44 109.545 431.233 109.934L411.249 113.457C409.042 113.847 406.937 112.373 406.548 110.165L388.718 9.04729Z" fill="white"/>
<path d="M442.826 5.8257C442.826 3.58015 444.681 1.75977 446.969 1.75977H467.683C469.971 1.75977 471.826 3.58015 471.826 5.8257V108.694C471.826 110.939 469.971 112.76 467.683 112.76H446.969C444.681 112.76 442.826 110.939 442.826 108.694V5.8257Z" fill="white"/>
<path d="M437.826 16.7598C437.826 13.9983 440.065 11.7598 442.826 11.7598H476.317C478.265 11.7598 480.035 12.8902 480.854 14.6568L504.033 64.6568C505.57 67.9706 503.15 71.7598 499.497 71.7598H442.826C440.065 71.7598 437.826 69.5212 437.826 66.7598V16.7598Z" fill="white"/>
</svg>
