<svg width="306" height="113" viewBox="0 0 306 113" fill="none" xmlns="http://www.w3.org/2000/svg">
<path d="M268.56 71.9999C263.743 71.9999 259.56 71.1971 256.01 69.5914C252.461 67.9858 249.715 65.7041 247.771 62.7464C245.827 59.7041 244.855 56.1971 244.855 52.2253C244.855 48.4225 245.701 45.0422 247.391 42.0844C249.081 39.0422 251.701 36.507 255.25 34.4788C258.799 32.4506 263.278 31.014 268.686 30.169L291.25 26.4929V39.169L271.855 42.4647C268.56 43.0563 266.109 44.1126 264.503 45.6337C262.898 47.1549 262.095 49.1408 262.095 51.5915C262.095 53.9577 262.982 55.8591 264.757 57.2957C266.616 58.6478 268.898 59.3238 271.602 59.3238C275.067 59.3238 278.109 58.6055 280.729 57.1689C283.433 55.6478 285.503 53.5774 286.94 50.9577C288.461 48.3379 289.222 45.4647 289.222 42.338V24.5915C289.222 21.6338 288.038 19.1831 285.672 17.2394C283.391 15.2112 280.348 14.1972 276.546 14.1972C272.996 14.1972 269.827 15.169 267.039 17.1127C264.334 18.9718 262.348 21.4648 261.081 24.5915L247.517 18C248.87 14.3662 250.982 11.2394 253.855 8.6197C256.813 5.91548 260.278 3.80281 264.25 2.28169C268.222 0.760562 272.531 0 277.179 0C282.841 0 287.827 1.05634 292.137 3.16901C296.447 5.19718 299.785 8.07041 302.151 11.7887C304.602 15.4225 305.827 19.6901 305.827 24.5915V70.4788H290.109V58.69L293.658 58.4365C291.884 61.3943 289.771 63.8872 287.32 65.9154C284.869 67.859 282.081 69.3802 278.954 70.4788C275.827 71.4928 272.362 71.9999 268.56 71.9999Z" fill="#303030"/>
<path d="M198.965 70.4789V1.5213H214.556V16.8593L213.289 14.5776C214.894 9.4227 217.387 5.83115 220.768 3.80299C224.232 1.77482 228.373 0.760742 233.19 0.760742H237.246V15.4649H231.289C226.556 15.4649 222.754 16.9438 219.88 19.9015C217.007 22.7748 215.57 26.8311 215.57 32.0706V70.4789H198.965Z" fill="#303030"/>
<path d="M147.149 72C141.825 72 137.177 70.8169 133.205 68.4507C129.318 66.0845 126.318 62.7887 124.205 58.5634C122.177 54.3381 121.163 49.3944 121.163 43.7324V1.52124H137.769V42.3381C137.769 45.2113 138.318 47.7465 139.417 49.9437C140.6 52.0564 142.248 53.7465 144.36 55.0141C146.557 56.1972 149.008 56.7888 151.712 56.7888C154.417 56.7888 156.825 56.1972 158.938 55.0141C161.05 53.7465 162.698 52.0141 163.881 49.8169C165.064 47.6198 165.656 45 165.656 41.9578V1.52124H182.262V70.4789H166.543V56.9155L167.938 59.324C166.332 63.5493 163.67 66.7183 159.952 68.831C156.318 70.9437 152.05 72 147.149 72Z" fill="#303030"/>
<path d="M26.7501 70.4789L3.0459 1.52124H20.5388L37.905 53.8733L31.8205 53.7465L50.3275 1.52124H65.0317L83.412 53.7465L77.3275 53.8733L94.6936 1.52124H112.187L88.4824 70.4789H73.6514L54.8909 15.8452H60.4683L41.4543 70.4789H26.7501Z" fill="#303030"/>
<path d="M286.547 111.8V90.0396H291.467V94.3196L291.067 93.5596C291.574 92.2529 292.4 91.2662 293.547 90.5996C294.72 89.9062 296.08 89.5596 297.627 89.5596C299.227 89.5596 300.64 89.9062 301.867 90.5996C303.12 91.2929 304.094 92.2662 304.787 93.5196C305.48 94.7462 305.827 96.1729 305.827 97.7996V111.8H300.587V99.0396C300.587 98.0796 300.4 97.2529 300.027 96.5596C299.654 95.8662 299.134 95.3329 298.467 94.9596C297.827 94.5596 297.067 94.3596 296.187 94.3596C295.334 94.3596 294.574 94.5596 293.907 94.9596C293.24 95.3329 292.72 95.8662 292.347 96.5596C291.974 97.2529 291.787 98.0796 291.787 99.0396V111.8H286.547Z" fill="#303030"/>
<path d="M271.186 111.8V90.0398H276.106V94.8798L275.706 94.1598C276.212 92.5331 276.999 91.3998 278.066 90.7598C279.159 90.1198 280.466 89.7998 281.986 89.7998H283.266V94.4398H281.386C279.892 94.4398 278.692 94.9065 277.786 95.8398C276.879 96.7465 276.426 98.0265 276.426 99.6798V111.8H271.186Z" fill="#303030"/>
<path d="M254.183 112.28C252.663 112.28 251.343 112.026 250.223 111.52C249.103 111.013 248.236 110.293 247.623 109.36C247.01 108.4 246.703 107.293 246.703 106.04C246.703 104.84 246.97 103.773 247.503 102.84C248.036 101.88 248.863 101.08 249.983 100.44C251.103 99.7996 252.516 99.3462 254.223 99.0796L261.343 97.9196V101.92L255.223 102.96C254.183 103.146 253.41 103.48 252.903 103.96C252.396 104.44 252.143 105.066 252.143 105.84C252.143 106.586 252.423 107.186 252.983 107.64C253.57 108.066 254.29 108.28 255.143 108.28C256.236 108.28 257.196 108.053 258.023 107.6C258.876 107.12 259.53 106.466 259.983 105.64C260.463 104.813 260.703 103.906 260.703 102.92V97.3196C260.703 96.3862 260.33 95.6129 259.583 94.9996C258.863 94.3596 257.903 94.0396 256.703 94.0396C255.583 94.0396 254.583 94.3462 253.703 94.9596C252.85 95.5462 252.223 96.3329 251.823 97.3196L247.543 95.2396C247.97 94.0929 248.636 93.1062 249.543 92.2796C250.476 91.4262 251.57 90.7596 252.823 90.2796C254.076 89.7996 255.436 89.5596 256.903 89.5596C258.69 89.5596 260.263 89.8929 261.623 90.5596C262.983 91.1996 264.036 92.1062 264.783 93.2796C265.556 94.4262 265.943 95.7729 265.943 97.3196V111.8H260.983V108.08L262.103 108C261.543 108.933 260.876 109.72 260.103 110.36C259.33 110.973 258.45 111.453 257.463 111.8C256.476 112.12 255.383 112.28 254.183 112.28Z" fill="#303030"/>
<path d="M233.089 112.28C230.849 112.28 228.889 111.773 227.209 110.76C225.529 109.746 224.222 108.373 223.289 106.64C222.355 104.906 221.889 102.986 221.889 100.88C221.889 98.6929 222.355 96.7596 223.289 95.0796C224.249 93.3729 225.542 92.0262 227.169 91.0396C228.822 90.0529 230.662 89.5596 232.689 89.5596C234.395 89.5596 235.889 89.8396 237.169 90.3996C238.475 90.9596 239.582 91.7329 240.489 92.7196C241.395 93.7062 242.089 94.8396 242.569 96.1196C243.049 97.3729 243.289 98.7329 243.289 100.2C243.289 100.573 243.262 100.96 243.209 101.36C243.182 101.76 243.115 102.106 243.009 102.4H226.209V98.3996H240.049L237.569 100.28C237.809 99.0529 237.742 97.9596 237.369 96.9996C237.022 96.0396 236.435 95.2796 235.609 94.7196C234.809 94.1596 233.835 93.8796 232.689 93.8796C231.595 93.8796 230.622 94.1596 229.769 94.7196C228.915 95.2529 228.262 96.0529 227.809 97.1196C227.382 98.1596 227.222 99.4262 227.329 100.92C227.222 102.253 227.395 103.44 227.849 104.48C228.329 105.493 229.022 106.28 229.929 106.84C230.862 107.4 231.929 107.68 233.129 107.68C234.329 107.68 235.342 107.426 236.169 106.92C237.022 106.413 237.689 105.733 238.169 104.88L242.409 106.96C241.982 108 241.315 108.92 240.409 109.72C239.502 110.52 238.422 111.146 237.169 111.6C235.942 112.053 234.582 112.28 233.089 112.28Z" fill="#303030"/>
<path d="M201.09 111.8V82H206.53V107H219.29V111.8H201.09Z" fill="#303030"/>
</svg>
