<svg width="306" height="72" viewBox="0 0 306 72" fill="none" xmlns="http://www.w3.org/2000/svg">
<path d="M268.56 71.9999C263.743 71.9999 259.56 71.1971 256.01 69.5914C252.461 67.9858 249.715 65.7041 247.771 62.7464C245.827 59.7041 244.855 56.1971 244.855 52.2253C244.855 48.4225 245.701 45.0422 247.391 42.0844C249.081 39.0422 251.701 36.507 255.25 34.4788C258.799 32.4506 263.278 31.014 268.686 30.169L291.25 26.4929V39.169L271.855 42.4647C268.56 43.0563 266.109 44.1126 264.503 45.6337C262.898 47.1549 262.095 49.1408 262.095 51.5915C262.095 53.9577 262.982 55.8591 264.757 57.2957C266.616 58.6478 268.898 59.3238 271.602 59.3238C275.067 59.3238 278.109 58.6055 280.729 57.1689C283.433 55.6478 285.503 53.5774 286.94 50.9577C288.461 48.3379 289.222 45.4647 289.222 42.338V24.5915C289.222 21.6338 288.038 19.1831 285.672 17.2394C283.391 15.2112 280.348 14.1972 276.546 14.1972C272.996 14.1972 269.827 15.169 267.039 17.1127C264.334 18.9718 262.348 21.4648 261.081 24.5915L247.517 18C248.87 14.3662 250.982 11.2394 253.855 8.6197C256.813 5.91548 260.278 3.80281 264.25 2.28169C268.222 0.760562 272.531 0 277.179 0C282.841 0 287.827 1.05634 292.137 3.16901C296.447 5.19718 299.785 8.07041 302.151 11.7887C304.602 15.4225 305.827 19.6901 305.827 24.5915V70.4788H290.109V58.69L293.658 58.4365C291.884 61.3943 289.771 63.8872 287.32 65.9154C284.869 67.859 282.081 69.3802 278.954 70.4788C275.827 71.4928 272.362 71.9999 268.56 71.9999Z" fill="#303030"/>
<path d="M198.965 70.4789V1.5213H214.556V16.8593L213.289 14.5776C214.894 9.4227 217.387 5.83115 220.768 3.80299C224.232 1.77482 228.373 0.760742 233.19 0.760742H237.246V15.4649H231.289C226.556 15.4649 222.754 16.9438 219.88 19.9015C217.007 22.7748 215.57 26.8311 215.57 32.0706V70.4789H198.965Z" fill="#303030"/>
<path d="M147.149 72C141.825 72 137.177 70.8169 133.205 68.4507C129.318 66.0845 126.318 62.7887 124.205 58.5634C122.177 54.3381 121.163 49.3944 121.163 43.7324V1.52124H137.769V42.3381C137.769 45.2113 138.318 47.7465 139.417 49.9437C140.6 52.0564 142.248 53.7465 144.36 55.0141C146.557 56.1972 149.008 56.7888 151.712 56.7888C154.417 56.7888 156.825 56.1972 158.938 55.0141C161.05 53.7465 162.698 52.0141 163.881 49.8169C165.064 47.6198 165.656 45 165.656 41.9578V1.52124H182.262V70.4789H166.543V56.9155L167.938 59.324C166.332 63.5493 163.67 66.7183 159.952 68.831C156.318 70.9437 152.05 72 147.149 72Z" fill="#303030"/>
<path d="M26.7501 70.4789L3.0459 1.52124H20.5388L37.905 53.8733L31.8205 53.7465L50.3275 1.52124H65.0317L83.412 53.7465L77.3275 53.8733L94.6936 1.52124H112.187L88.4824 70.4789H73.6514L54.8909 15.8452H60.4683L41.4543 70.4789H26.7501Z" fill="#303030"/>
</svg>
