<svg width="493" height="114" viewBox="0 0 493 114" fill="none" xmlns="http://www.w3.org/2000/svg">
<path d="M268.56 72.7601C263.743 72.7601 259.56 71.9573 256.01 70.3517C252.461 68.7461 249.715 66.4644 247.771 63.5066C245.827 60.4644 244.855 56.9573 244.855 52.9855C244.855 49.1827 245.701 45.8024 247.391 42.8447C249.081 39.8024 251.701 37.2672 255.25 35.2391C258.799 33.2109 263.278 31.7743 268.686 30.9292L291.25 27.2532V39.9292L271.855 43.225C268.56 43.8165 266.109 44.8729 264.503 46.394C262.898 47.9151 262.095 49.901 262.095 52.3517C262.095 54.7179 262.982 56.6193 264.757 58.0559C266.616 59.408 268.898 60.0841 271.602 60.0841C275.067 60.0841 278.109 59.3658 280.729 57.9292C283.433 56.408 285.503 54.3376 286.94 51.7179C288.461 49.0982 289.222 46.225 289.222 43.0982V25.3518C289.222 22.394 288.038 19.9433 285.672 17.9997C283.391 15.9715 280.348 14.9574 276.546 14.9574C272.996 14.9574 269.827 15.9292 267.039 17.8729C264.334 19.7321 262.348 22.225 261.081 25.3518L247.517 18.7602C248.87 15.1264 250.982 11.9997 253.855 9.37996C256.813 6.67574 260.278 4.56307 264.25 3.04194C268.222 1.52082 272.531 0.760254 277.179 0.760254C282.841 0.760254 287.827 1.81659 292.137 3.92927C296.447 5.95743 299.785 8.83066 302.151 12.549C304.602 16.1828 305.827 20.4504 305.827 25.3518V71.239H290.109V59.4503L293.658 59.1968C291.884 62.1545 289.771 64.6475 287.32 66.6756C284.869 68.6193 282.081 70.1404 278.954 71.239C275.827 72.2531 272.362 72.7601 268.56 72.7601Z" fill="#303030"/>
<path d="M198.965 71.2392V2.28156H214.556V17.6196L213.289 15.3379C214.894 10.183 217.387 6.59141 220.768 4.56324C224.232 2.53508 228.373 1.521 233.19 1.521H237.246V16.2252H231.289C226.556 16.2252 222.754 17.7041 219.88 20.6618C217.007 23.535 215.57 27.5914 215.57 32.8308V71.2392H198.965Z" fill="#303030"/>
<path d="M147.149 72.7605C141.825 72.7605 137.177 71.5774 133.205 69.2112C129.318 66.845 126.318 63.5492 124.205 59.3239C122.177 55.0985 121.163 50.1549 121.163 44.4929V2.28174H137.769V43.0986C137.769 45.9718 138.318 48.507 139.417 50.7042C140.6 52.8169 142.248 54.507 144.36 55.7746C146.557 56.9577 149.008 57.5492 151.712 57.5492C154.417 57.5492 156.825 56.9577 158.938 55.7746C161.05 54.507 162.698 52.7746 163.881 50.5774C165.064 48.3802 165.656 45.7605 165.656 42.7183V2.28174H182.262V71.2394H166.543V57.676L167.938 60.0845C166.332 64.3098 163.67 67.4788 159.952 69.5915C156.318 71.7041 152.05 72.7605 147.149 72.7605Z" fill="#303030"/>
<path d="M26.7501 71.2394L3.0459 2.28174H20.5388L37.905 54.6338L31.8205 54.507L50.3275 2.28174H65.0317L83.412 54.507L77.3275 54.6338L94.6936 2.28174H112.187L88.4824 71.2394H73.6514L54.8909 16.6057H60.4683L41.4543 71.2394H26.7501Z" fill="#303030"/>
<path d="M286.547 112.56V90.7998H291.467V95.0798L291.067 94.3198C291.574 93.0132 292.4 92.0265 293.547 91.3598C294.72 90.6665 296.08 90.3198 297.627 90.3198C299.227 90.3198 300.64 90.6665 301.867 91.3598C303.12 92.0532 304.094 93.0265 304.787 94.2798C305.48 95.5065 305.827 96.9332 305.827 98.5598V112.56H300.587V99.7998C300.587 98.8398 300.4 98.0132 300.027 97.3198C299.654 96.6265 299.134 96.0932 298.467 95.7198C297.827 95.3198 297.067 95.1198 296.187 95.1198C295.334 95.1198 294.574 95.3198 293.907 95.7198C293.24 96.0932 292.72 96.6265 292.347 97.3198C291.974 98.0132 291.787 98.8398 291.787 99.7998V112.56H286.547Z" fill="#303030"/>
<path d="M271.186 112.56V90.8001H276.106V95.6401L275.706 94.9201C276.212 93.2934 276.999 92.1601 278.066 91.5201C279.159 90.8801 280.466 90.5601 281.986 90.5601H283.266V95.2001H281.386C279.892 95.2001 278.692 95.6667 277.786 96.6001C276.879 97.5067 276.426 98.7867 276.426 100.44V112.56H271.186Z" fill="#303030"/>
<path d="M254.183 113.04C252.663 113.04 251.343 112.786 250.223 112.28C249.103 111.773 248.236 111.053 247.623 110.12C247.01 109.16 246.703 108.053 246.703 106.8C246.703 105.6 246.97 104.533 247.503 103.6C248.036 102.64 248.863 101.84 249.983 101.2C251.103 100.56 252.516 100.106 254.223 99.8398L261.343 98.6798V102.68L255.223 103.72C254.183 103.906 253.41 104.24 252.903 104.72C252.396 105.2 252.143 105.826 252.143 106.6C252.143 107.346 252.423 107.946 252.983 108.4C253.57 108.826 254.29 109.04 255.143 109.04C256.236 109.04 257.196 108.813 258.023 108.36C258.876 107.88 259.53 107.226 259.983 106.4C260.463 105.573 260.703 104.666 260.703 103.68V98.0798C260.703 97.1465 260.33 96.3732 259.583 95.7598C258.863 95.1198 257.903 94.7998 256.703 94.7998C255.583 94.7998 254.583 95.1065 253.703 95.7198C252.85 96.3065 252.223 97.0932 251.823 98.0798L247.543 95.9998C247.97 94.8532 248.636 93.8665 249.543 93.0398C250.476 92.1865 251.57 91.5198 252.823 91.0398C254.076 90.5598 255.436 90.3198 256.903 90.3198C258.69 90.3198 260.263 90.6532 261.623 91.3198C262.983 91.9598 264.036 92.8665 264.783 94.0398C265.556 95.1865 265.943 96.5332 265.943 98.0798V112.56H260.983V108.84L262.103 108.76C261.543 109.693 260.876 110.48 260.103 111.12C259.33 111.733 258.45 112.213 257.463 112.56C256.476 112.88 255.383 113.04 254.183 113.04Z" fill="#303030"/>
<path d="M233.089 113.04C230.849 113.04 228.889 112.533 227.209 111.52C225.529 110.506 224.222 109.133 223.289 107.4C222.355 105.666 221.889 103.746 221.889 101.64C221.889 99.4532 222.355 97.5198 223.289 95.8398C224.249 94.1332 225.542 92.7865 227.169 91.7998C228.822 90.8132 230.662 90.3198 232.689 90.3198C234.395 90.3198 235.889 90.5998 237.169 91.1598C238.475 91.7198 239.582 92.4932 240.489 93.4798C241.395 94.4665 242.089 95.5998 242.569 96.8798C243.049 98.1332 243.289 99.4932 243.289 100.96C243.289 101.333 243.262 101.72 243.209 102.12C243.182 102.52 243.115 102.866 243.009 103.16H226.209V99.1598H240.049L237.569 101.04C237.809 99.8132 237.742 98.7198 237.369 97.7598C237.022 96.7998 236.435 96.0398 235.609 95.4798C234.809 94.9198 233.835 94.6398 232.689 94.6398C231.595 94.6398 230.622 94.9198 229.769 95.4798C228.915 96.0132 228.262 96.8132 227.809 97.8798C227.382 98.9198 227.222 100.186 227.329 101.68C227.222 103.013 227.395 104.2 227.849 105.24C228.329 106.253 229.022 107.04 229.929 107.6C230.862 108.16 231.929 108.44 233.129 108.44C234.329 108.44 235.342 108.186 236.169 107.68C237.022 107.173 237.689 106.493 238.169 105.64L242.409 107.72C241.982 108.76 241.315 109.68 240.409 110.48C239.502 111.28 238.422 111.906 237.169 112.36C235.942 112.813 234.582 113.04 233.089 113.04Z" fill="#303030"/>
<path d="M201.09 112.56V82.7603H206.53V107.76H219.29V112.56H201.09Z" fill="#303030"/>
<path d="M336.072 13.5154C335.305 11.4091 336.391 9.08023 338.498 8.31363L357.566 1.37332C359.672 0.606716 362.001 1.6927 362.768 3.79893L397.886 100.285C398.652 102.391 397.566 104.72 395.46 105.486L376.392 112.427C374.285 113.193 371.957 112.107 371.19 110.001L336.072 13.5154Z" fill="#303030"/>
<path d="M388.718 8.80754C388.329 6.60019 389.803 4.49526 392.01 4.10604L411.994 0.582355C414.201 0.193139 416.306 1.66703 416.695 3.87438L434.525 104.993C434.914 107.2 433.44 109.305 431.233 109.694L411.249 113.218C409.042 113.607 406.937 112.133 406.548 109.926L388.718 8.80754Z" fill="#303030"/>
<path d="M442.826 5.58595C442.826 3.3404 444.681 1.52002 446.969 1.52002H467.683C469.971 1.52002 471.826 3.3404 471.826 5.58595V108.454C471.826 110.7 469.971 112.52 467.683 112.52H446.969C444.681 112.52 442.826 110.7 442.826 108.454V5.58595Z" fill="#303030"/>
<path fill-rule="evenodd" clip-rule="evenodd" d="M436.826 40.52C436.826 43.2814 439.065 45.52 441.826 45.52H473.826C476.588 45.52 478.826 43.2814 478.826 40.52V21.52H480.826V36.0914V37.1406C480.826 38.0265 481.893 38.4749 482.526 37.8549L483.626 36.7769C484.015 36.3961 484.637 36.3961 485.026 36.7769L486.126 37.8549C486.759 38.4749 487.826 38.0265 487.826 37.1406V36.0914V21.52C490.588 21.52 492.826 19.2814 492.826 16.52C492.826 13.7586 490.588 11.52 487.826 11.52H473.826H464.826H441.826C439.065 11.52 436.826 13.7586 436.826 16.52V40.52Z" fill="#303030"/>
</svg>
