<svg width="422" height="72" viewBox="0 0 422 72" fill="none" xmlns="http://www.w3.org/2000/svg">
<path d="M0.156986 8.29784C-0.33251 6.95296 0.360915 5.4659 1.70579 4.97641L13.8814 0.544854C15.2263 0.0553576 16.7133 0.748783 17.2028 2.09366L39.6265 63.7022C40.116 65.0471 39.4226 66.5341 38.0777 67.0236L25.9021 71.4552C24.5572 71.9447 23.0702 71.2512 22.5807 69.9064L0.156986 8.29784Z" fill="#303030"/>
<path d="M33.7726 5.29178C33.5241 3.88234 34.4652 2.53829 35.8747 2.28976L48.6348 0.0398025C50.0443 -0.208721 51.3883 0.732394 51.6369 2.14184L63.0216 66.7082C63.2702 68.1177 62.3291 69.4617 60.9196 69.7102L48.1595 71.9602C46.75 72.2087 45.406 71.2676 45.1574 69.8582L33.7726 5.29178Z" fill="#303030"/>
<path d="M67.8326 3.21881C67.8326 1.78762 68.9929 0.627409 70.424 0.627409H83.381C84.8122 0.627409 85.9724 1.78762 85.9724 3.21881V68.7812C85.9724 70.2124 84.8122 71.3726 83.381 71.3726H70.424C68.9929 71.3726 67.8326 70.2124 67.8326 68.7812V3.21881Z" fill="#303030"/>
<path d="M384.532 71.9999C379.715 71.9999 375.532 71.1971 371.983 69.5914C368.434 67.9858 365.687 65.7041 363.744 62.7464C361.8 59.7041 360.828 56.1971 360.828 52.2253C360.828 48.4225 361.673 45.0422 363.363 42.0844C365.053 39.0422 367.673 36.507 371.222 34.4788C374.772 32.4506 379.251 31.014 384.659 30.169L407.222 26.4929V39.169L387.828 42.4647C384.532 43.0563 382.082 44.1126 380.476 45.6337C378.87 47.1549 378.068 49.1408 378.068 51.5915C378.068 53.9577 378.955 55.8591 380.73 57.2957C382.589 58.6478 384.87 59.3238 387.575 59.3238C391.039 59.3238 394.082 58.6055 396.701 57.1689C399.406 55.6478 401.476 53.5774 402.913 50.9577C404.434 48.3379 405.194 45.4647 405.194 42.338V24.5915C405.194 21.6338 404.011 19.1831 401.645 17.2394C399.363 15.2112 396.321 14.1972 392.518 14.1972C388.969 14.1972 385.8 15.169 383.011 17.1127C380.307 18.9718 378.321 21.4648 377.053 24.5915L363.49 18C364.842 14.3662 366.955 11.2394 369.828 8.6197C372.786 5.91548 376.251 3.80281 380.222 2.28169C384.194 0.760562 388.504 0 393.152 0C398.814 0 403.8 1.05634 408.11 3.16901C412.42 5.19718 415.758 8.07041 418.124 11.7887C420.574 15.4225 421.8 19.6901 421.8 24.5915V70.4788H406.082V58.69L409.631 58.4365C407.856 61.3943 405.744 63.8872 403.293 65.9154C400.842 67.859 398.053 69.3802 394.927 70.4788C391.8 71.4928 388.335 71.9999 384.532 71.9999Z" fill="#303030"/>
<path d="M314.938 70.4789V1.5213H330.529V16.8593L329.261 14.5776C330.867 9.4227 333.36 5.83115 336.74 3.80299C340.205 1.77482 344.346 0.760742 349.163 0.760742H353.219V15.4649H347.261C342.529 15.4649 338.726 16.9438 335.853 19.9015C332.98 22.7748 331.543 26.8311 331.543 32.0706V70.4789H314.938Z" fill="#303030"/>
<path d="M263.122 72C257.798 72 253.15 70.8169 249.178 68.4507C245.291 66.0845 242.291 62.7887 240.178 58.5634C238.15 54.3381 237.136 49.3944 237.136 43.7324V1.52124H253.741V42.3381C253.741 45.2113 254.291 47.7465 255.389 49.9437C256.572 52.0564 258.22 53.7465 260.333 55.0141C262.53 56.1972 264.981 56.7888 267.685 56.7888C270.389 56.7888 272.798 56.1972 274.91 55.0141C277.023 53.7465 278.671 52.0141 279.854 49.8169C281.037 47.6198 281.629 45 281.629 41.9578V1.52124H298.234V70.4789H282.516V56.9155L283.91 59.324C282.305 63.5493 279.643 66.7183 275.924 68.831C272.291 70.9437 268.023 72 263.122 72Z" fill="#303030"/>
<path d="M142.723 70.4789L119.019 1.52124H136.511L153.878 53.8733L147.793 53.7465L166.3 1.52124H181.004L199.385 53.7465L193.3 53.8733L210.666 1.52124H228.159L204.455 70.4789H189.624L170.864 15.8452H176.441L157.427 70.4789H142.723Z" fill="#303030"/>
</svg>
